<?xml version="1.0" encoding="utf-8"?>
<!-- Generator: Adobe Illustrator 15.0.0, SVG Export Plug-In . SVG Version: 6.00 Build 0)  -->
<!DOCTYPE svg PUBLIC "-//W3C//DTD SVG 1.1//EN" "http://www.w3.org/Graphics/SVG/1.1/DTD/svg11.dtd">
<svg version="1.1" id="Arrow" xmlns="http://www.w3.org/2000/svg" xmlns:xlink="http://www.w3.org/1999/xlink" x="0px" y="0px"
	 width="56px" height="9px" viewBox="0 0 56 9" enable-background="new 0 0 56 9" xml:space="preserve">
<path fill="#2780B9" d="M0,2.077L2.099,0L7,4.846L11.901,0L14,2.077L7,9L0,2.077z"/>
<path fill="#3498DB" d="M14,2.077L16.099,0L21,4.846L25.901,0L28,2.077L21,9L14,2.077z"/>
<path fill="#2780B9" d="M42,6.923L39.901,9L35,4.154L30.099,9L28,6.923L35,0L42,6.923z"/>
<path fill="#3498DB" d="M56,6.924L53.901,9L49,4.155L44.099,9L42,6.924L49,0L56,6.924z"/>
</svg>
