<?xml version="1.0" encoding="utf-8"?>
<!-- Generator: Adobe Illustrator 15.0.0, SVG Export Plug-In . SVG Version: 6.00 Build 0)  -->
<!DOCTYPE svg PUBLIC "-//W3C//DTD SVG 1.1//EN" "http://www.w3.org/Graphics/SVG/1.1/DTD/svg11.dtd">
<svg version="1.1" id="Arrow" xmlns="http://www.w3.org/2000/svg" xmlns:xlink="http://www.w3.org/1999/xlink" x="0px" y="0px"
	 width="1583.984px" height="39px" viewBox="0.016 0 1583.984 39" enable-background="new 0.016 0 1583.984 39"
	 xml:space="preserve">
<g>
	<path fill="#D1CDCA" d="M24.25,27.328h-10.5c-0.169,0-0.307-0.137-0.307-0.307v-5.718L11.306,21.3
		c-0.124,0-0.235-0.075-0.282-0.189c-0.048-0.115-0.021-0.246,0.066-0.334l7.687-7.686c0.07-0.07,0.17-0.102,0.266-0.087
		c0.091,0.015,0.17,0.069,0.217,0.149l1.789,1.789v-0.571c0-0.169,0.137-0.307,0.307-0.307h1.802c0.17,0,0.307,0.138,0.307,0.307
		v2.986l3.447,3.448c0.088,0.088,0.115,0.22,0.068,0.334c-0.049,0.115-0.16,0.189-0.285,0.189l0,0l-2.137-0.004v5.696
		C24.557,27.191,24.42,27.328,24.25,27.328z"/>
</g>
<g>
	<g>
		<path fill="#D1CDCA" d="M90.332,23.253c-0.08-0.027-0.588-0.547-0.271-1.524h-0.004c0.825-0.864,1.533-2.253,1.533-3.622
			c0-2.104-1.454-3.205-3.056-3.205c-1.603,0-2.992,1.102-2.992,3.205c0,1.374,0.647,2.769,1.478,3.632
			c0.323,0.862-0.256,1.469-0.377,1.515C84.968,23.868,83,24.991,83,26.1c0,0.299,0,0.117,0,0.414c0,1.51,2.883,1.853,5.552,1.853
			c2.67,0,5.518-0.343,5.518-1.853c0-0.296,0-0.115,0-0.414C94.069,24.958,92.091,23.844,90.332,23.253z M95.486,20.48
			c-0.075-0.025-0.552-0.142-0.254-1.063h-0.004c0.776-0.811,1.312-2.119,1.312-3.404c0-1.977-1.239-3.014-2.743-3.014
			c-1.108,0-2.063,0.565-2.491,1.65c0.898,0.743,1.517,1.899,1.517,3.456c0,1.661-0.778,3.179-1.593,4.158
			c1.298,0.49,3.326,1.479,3.907,2.989C97.182,25.14,99,24.716,99,23.546c0-0.28,0-0.11,0-0.391
			C98.999,22.082,97.141,21.036,95.486,20.48z"/>
	</g>
</g>
<g>
	<g>
		<path fill="#A29A94" d="M126.332,23.253c-0.08-0.027-0.588-0.547-0.271-1.524h-0.004c0.825-0.864,1.533-2.253,1.533-3.622
			c0-2.104-1.454-3.205-3.056-3.205c-1.603,0-2.992,1.102-2.992,3.205c0,1.374,0.647,2.769,1.478,3.632
			c0.323,0.862-0.256,1.469-0.377,1.515C120.968,23.868,119,24.991,119,26.1c0,0.299,0,0.117,0,0.414
			c0,1.51,2.883,1.853,5.552,1.853c2.67,0,5.518-0.343,5.518-1.853c0-0.296,0-0.115,0-0.414
			C130.069,24.958,128.091,23.844,126.332,23.253z M131.486,20.48c-0.075-0.025-0.552-0.142-0.254-1.063h-0.004
			c0.776-0.811,1.312-2.119,1.312-3.404c0-1.977-1.239-3.014-2.743-3.014c-1.108,0-2.063,0.565-2.491,1.65
			c0.898,0.743,1.517,1.899,1.517,3.456c0,1.661-0.778,3.179-1.593,4.158c1.298,0.49,3.326,1.479,3.907,2.989
			c2.045-0.114,3.863-0.538,3.863-1.708c0-0.28,0-0.11,0-0.391C134.999,22.082,133.141,21.036,131.486,20.48z"/>
	</g>
</g>
<g>
	<path fill="#A29A94" d="M60.25,27.328h-10.5c-0.169,0-0.307-0.137-0.307-0.307v-5.718L47.306,21.3
		c-0.124,0-0.235-0.075-0.282-0.189c-0.048-0.115-0.021-0.246,0.066-0.334l7.687-7.686c0.07-0.07,0.17-0.102,0.266-0.087
		c0.091,0.015,0.17,0.069,0.217,0.149l1.789,1.789v-0.571c0-0.169,0.137-0.307,0.307-0.307h1.802c0.17,0,0.307,0.138,0.307,0.307
		v2.986l3.447,3.448c0.088,0.088,0.115,0.22,0.068,0.334c-0.049,0.115-0.16,0.189-0.285,0.189l0,0l-2.137-0.004v5.696
		C60.557,27.191,60.42,27.328,60.25,27.328z"/>
</g>
<circle fill="#D1CDCA" cx="163" cy="21" r="8"/>
<circle fill="#E8E6E4" cx="163" cy="21" r="4.423"/>
<path fill="#D1CDCA" stroke="#D1CDCA" stroke-miterlimit="10" d="M227.055,19.43c0,0,2.35-3.12,3.737-2.434
	s-0.277,1.867,1.067,2.484c1.345,0.618,3.375-0.152,2.925-1.938c-0.449-1.783-1.247-0.518-1.87-1.476
	C232.29,15.11,235.979,13,235.979,13s2.246,4.445,2.884,3.282c0.774-1.406,2.135-2.85,3.546-0.684c0,0,1.213,1.611,0.165,2.294
	c-1.048,0.684-1.95,0.296-2.343,1.038s2.528,2.735,2.528,2.735s-1.995,3.216-3.292,2.372c-1.296-0.845,0.237-2.25-1.74-2.667
	c-0.861-0.152-2.298,0.361-2.551,1.573c-0.087,1.811,1.071,1.35,1.864,2.325c0.797,0.973-2.991,3.021-2.991,3.021
	s-1.06-2.624-2.547-3.11c-1.489-0.486-0.598,1.435-1.95,1.688c-1.354,0.265-3.22-1.602-2.313-3.2
	c0.909-1.601,2.188-0.03,2.301-1.302C229.654,21.079,227.055,19.43,227.055,19.43z"/>
<path fill="#A29A94" stroke="#9C9C9C" stroke-miterlimit="10" d="M263.055,19.43c0,0,2.35-3.12,3.737-2.434
	s-0.277,1.867,1.067,2.484c1.345,0.618,3.375-0.152,2.925-1.938c-0.449-1.783-1.247-0.518-1.87-1.476
	C268.29,15.11,271.979,13,271.979,13s2.246,4.445,2.884,3.282c0.774-1.406,2.135-2.85,3.546-0.684c0,0,1.213,1.611,0.165,2.294
	c-1.048,0.684-1.95,0.296-2.343,1.038s2.528,2.735,2.528,2.735s-1.995,3.216-3.292,2.372c-1.296-0.845,0.237-2.25-1.74-2.667
	c-0.861-0.152-2.298,0.361-2.551,1.573c-0.087,1.811,1.071,1.35,1.864,2.325c0.797,0.973-2.991,3.021-2.991,3.021
	s-1.06-2.624-2.547-3.11c-1.489-0.486-0.598,1.435-1.95,1.688c-1.354,0.265-3.22-1.602-2.313-3.2
	c0.909-1.601,2.188-0.03,2.301-1.302C265.654,21.079,263.055,19.43,263.055,19.43z"/>
<path fill-rule="evenodd" clip-rule="evenodd" fill="#D1CDCA" d="M303.693,21.487c0.177-0.18,0.237-0.513,0.129-0.741
	c0,0-0.738-1.602-0.738-2.781c0-3.294,2.667-5.965,5.959-5.965c3.289,0,5.957,2.671,5.957,5.965c0,3.295-2.668,5.968-5.957,5.968
	c-1.178,0-2.777-0.742-2.777-0.742c-0.229-0.105-0.563-0.046-0.739,0.132l-4.559,4.564c-0.181,0.18-0.472,0.18-0.649,0l-1.186-1.186
	c-0.178-0.18-0.178-0.472,0-0.649L303.693,21.487z M309.043,21.178c1.768,0,3.207-1.441,3.207-3.213
	c0-1.771-1.439-3.212-3.207-3.212c-1.771,0-3.21,1.441-3.21,3.212C305.833,19.736,307.272,21.178,309.043,21.178z"/>
<path fill-rule="evenodd" clip-rule="evenodd" fill="#A29A94" d="M339.693,21.487c0.177-0.18,0.237-0.513,0.129-0.741
	c0,0-0.738-1.602-0.738-2.781c0-3.294,2.667-5.965,5.959-5.965c3.289,0,5.957,2.671,5.957,5.965c0,3.295-2.668,5.968-5.957,5.968
	c-1.178,0-2.777-0.742-2.777-0.742c-0.229-0.105-0.563-0.046-0.739,0.132l-4.559,4.564c-0.181,0.18-0.472,0.18-0.649,0l-1.186-1.186
	c-0.178-0.18-0.178-0.472,0-0.649L339.693,21.487z M345.043,21.178c1.768,0,3.207-1.441,3.207-3.213
	c0-1.771-1.439-3.212-3.207-3.212c-1.771,0-3.21,1.441-3.21,3.212C341.833,19.736,343.272,21.178,345.043,21.178z"/>
<path fill="#D1CDCA" d="M386.582,21.127c-0.053,0.254-0.226,0.49-0.543,0.415c-1.146-0.271-2.94-0.353-4.002-0.096
	c-0.391,0.096-0.573-0.075-0.72-0.542c-0.365-1.16-0.942-2.559-0.817-4.35c0.276-4.013,1.934-5.123,3.182-5.052
	C384.931,11.575,388.139,13.56,386.582,21.127z M381.446,23.522c0,0-0.224,0.696-0.349,1.831c-0.209,1.876,0.195,3.177,2.026,3.441
	c1.546,0.223,2.538-0.939,2.745-2.815c0.125-1.134,0.136-1.857,0.136-1.857L381.446,23.522z"/>
<path fill="#D1CDCA" d="M374.317,11.503c1.248-0.071,2.905,1.039,3.182,5.052c0.125,1.791-0.452,3.189-0.817,4.35
	c-0.146,0.466-0.329,0.636-0.72,0.542c-1.062-0.257-2.856-0.177-4.001,0.096c-0.318,0.075-0.491-0.161-0.544-0.415
	C369.86,13.56,373.068,11.575,374.317,11.503z M371.993,24.122c0,0,0.012,0.724,0.136,1.857c0.208,1.876,1.2,3.038,2.745,2.815
	c1.832-0.265,2.235-1.565,2.027-3.441c-0.126-1.135-0.35-1.831-0.35-1.831L371.993,24.122z"/>
<path fill="#A29A94" d="M422.582,21.127c-0.053,0.254-0.226,0.49-0.543,0.415c-1.146-0.271-2.94-0.353-4.002-0.096
	c-0.391,0.096-0.573-0.075-0.72-0.542c-0.365-1.16-0.942-2.559-0.817-4.35c0.276-4.013,1.934-5.123,3.182-5.052
	C420.931,11.575,424.139,13.56,422.582,21.127z M417.446,23.522c0,0-0.224,0.696-0.349,1.831c-0.209,1.876,0.195,3.177,2.026,3.441
	c1.546,0.223,2.538-0.939,2.745-2.815c0.125-1.134,0.136-1.857,0.136-1.857L417.446,23.522z"/>
<path fill="#A29A94" d="M410.317,11.503c1.248-0.071,2.905,1.039,3.182,5.052c0.125,1.791-0.452,3.189-0.817,4.35
	c-0.146,0.466-0.329,0.636-0.72,0.542c-1.062-0.257-2.856-0.177-4.001,0.096c-0.318,0.075-0.491-0.161-0.544-0.415
	C405.86,13.56,409.068,11.575,410.317,11.503z M407.993,24.122c0,0,0.012,0.724,0.136,1.857c0.208,1.876,1.2,3.038,2.745,2.815
	c1.832-0.265,2.235-1.565,2.027-3.441c-0.126-1.135-0.35-1.831-0.35-1.831L407.993,24.122z"/>
<path fill-rule="evenodd" clip-rule="evenodd" fill="#D1CDCA" d="M457.823,21.018c1.57-1.605,1.568-4.207,0-5.813
	c-0.803-0.82-1.859-1.222-2.912-1.203c-1.47,0.025-3.896,2.015-3.896,2.015s-2.494-2.018-4.001-2.016
	c-1.027,0.002-2.054,0.404-2.837,1.204c-1.569,1.606-1.57,4.208,0,5.813L451,27.993L457.823,21.018z"/>
<path fill-rule="evenodd" clip-rule="evenodd" fill="#A29A94" d="M493.823,21.018c1.57-1.605,1.568-4.207,0-5.813
	c-0.803-0.82-1.859-1.222-2.912-1.203c-1.47,0.025-3.896,2.015-3.896,2.015s-2.494-2.018-4.001-2.016
	c-1.027,0.002-2.054,0.404-2.837,1.204c-1.569,1.606-1.57,4.208,0,5.813L487,27.993L493.823,21.018z"/>
<path fill-rule="evenodd" clip-rule="evenodd" fill="#D1CDCA" d="M522.152,26.376l4.522,3.541c0.074,0.059,0.119,0.088,0.162,0.088
	c0.125,0,0.163-0.086,0.163-0.228v-3.35c0-0.236,0.156-0.425,0.366-0.425h1.644c1.459,0,1.99-0.96,1.99-0.96V15.04
	c0,0-0.572-1.04-2-1.04h-12.001c-1.457,0-1.999,1.04-1.999,1.04v10.003c0,0,0.642,0.96,2.007,0.96h4.001
	C521.008,26.003,521.844,26.025,522.152,26.376z"/>
<path fill-rule="evenodd" clip-rule="evenodd" fill="#A29A94" d="M558.152,26.376l4.522,3.541c0.074,0.059,0.119,0.088,0.162,0.088
	c0.125,0,0.163-0.086,0.163-0.228v-3.35c0-0.236,0.156-0.425,0.366-0.425h1.644c1.459,0,1.99-0.96,1.99-0.96V15.04
	c0,0-0.572-1.04-2-1.04h-12.001c-1.457,0-1.999,1.04-1.999,1.04v10.003c0,0,0.642,0.96,2.007,0.96h4.001
	C557.008,26.003,557.844,26.025,558.152,26.376z"/>
<path fill-rule="evenodd" clip-rule="evenodd" fill="#D1CDCA" d="M601.668,26.989h-13.335c-0.735,0-1.333-0.581-1.333-1.299V15.3
	c0-0.718,0.598-1.3,1.333-1.3h13.335c0.735,0,1.332,0.582,1.332,1.3V25.69C603,26.408,602.403,26.989,601.668,26.989z
	 M600.999,15.948H589v8.041c0,0,1-1,2-2s2,0,2,0l1,1c0,0,1.856-1.886,2.999-3c1.046-1.045,2,0,2,0l2,2V15.948z M591.667,19.845
	c-0.736,0-1.334-0.581-1.334-1.299s0.598-1.299,1.334-1.299S593,17.828,593,18.546S592.403,19.845,591.667,19.845z"/>
<path fill-rule="evenodd" clip-rule="evenodd" fill="#A29A94" d="M637.668,26.989h-13.335c-0.735,0-1.333-0.581-1.333-1.299V15.3
	c0-0.718,0.598-1.3,1.333-1.3h13.335c0.735,0,1.332,0.582,1.332,1.3V25.69C639,26.408,638.403,26.989,637.668,26.989z
	 M636.999,15.948H625v8.041c0,0,1-1,2-2s2,0,2,0l1,1c0,0,1.856-1.886,2.999-3c1.046-1.045,2,0,2,0l2,2V15.948z M627.667,19.845
	c-0.736,0-1.334-0.581-1.334-1.299s0.598-1.299,1.334-1.299S629,17.828,629,18.546S628.403,19.845,627.667,19.845z"/>
<g>
	<path fill="none" d="M660.109,17.11c0.319-0.149,0.916-0.128,1.853,0.413c0.183,1.852,0.486,4.107,0.916,6.026
		c-1.029-0.12-1.818-0.671-2.416-1.468c-0.672-0.898-1.034-2.086-1.055-3.079C659.39,18.007,659.686,17.312,660.109,17.11z"/>
	<path fill="#D1CDCA" d="M658.001,19.003c0.024,1.309,0.49,2.747,1.362,3.912c0.867,1.161,2.197,2.043,3.88,2.065
		c0.365,1.241,0.798,2.197,1.302,2.566l0.089,0.065h0.224h7.04h0.225l0.088-0.065c1.894-1.384,2.79-10.999,2.79-13.209V14h-13.245
		v0.338c0,0.355,0.024,0.903,0.071,1.574c-0.12-0.046-0.237-0.086-0.353-0.119c-0.73-0.216-1.36-0.226-1.934,0.043
		C658.394,16.373,657.975,17.693,658.001,19.003z M659.407,19.003c-0.018-0.996,0.278-1.691,0.702-1.893
		c0.319-0.149,0.916-0.128,1.853,0.413c0.183,1.852,0.486,4.107,0.916,6.026c-1.029-0.12-1.818-0.671-2.416-1.468
		C659.79,21.184,659.428,19.996,659.407,19.003z"/>
</g>
<g>
	<path fill="none" d="M696.109,17.11c0.319-0.149,0.916-0.128,1.853,0.413c0.183,1.852,0.486,4.107,0.916,6.026
		c-1.029-0.12-1.818-0.671-2.416-1.468c-0.672-0.898-1.034-2.086-1.055-3.079C695.39,18.007,695.686,17.312,696.109,17.11z"/>
	<path fill="#A29A94" d="M694.001,19.003c0.024,1.309,0.49,2.747,1.362,3.912c0.867,1.161,2.197,2.043,3.88,2.065
		c0.365,1.241,0.798,2.197,1.302,2.566l0.089,0.065h0.224h7.04h0.225l0.088-0.065c1.894-1.384,2.79-10.999,2.79-13.209V14h-13.245
		v0.338c0,0.355,0.024,0.903,0.071,1.574c-0.12-0.046-0.237-0.086-0.353-0.119c-0.73-0.216-1.36-0.226-1.934,0.043
		C694.394,16.373,693.975,17.693,694.001,19.003z M695.407,19.003c-0.018-0.996,0.278-1.691,0.702-1.893
		c0.319-0.149,0.916-0.128,1.853,0.413c0.183,1.852,0.486,4.107,0.916,6.026c-1.029-0.12-1.818-0.671-2.416-1.468
		C695.79,21.184,695.428,19.996,695.407,19.003z"/>
</g>
<path fill-rule="evenodd" clip-rule="evenodd" fill="#D1CDCA" d="M818.242,13.165c-0.217-0.22-0.577-0.22-0.794,0l-8.388,8.359
	c-0.221,0.22-0.579,0.22-0.799,0l-3.675-3.748c-0.107-0.11-0.25-0.166-0.394-0.167c-0.146-0.001-0.292,0.053-0.401,0.167
	l-1.624,1.463c-0.109,0.11-0.168,0.249-0.168,0.394c0,0.147,0.059,0.3,0.168,0.41l3.705,3.893c0.219,0.222,0.578,0.582,0.798,0.803
	l1.591,1.607c0.22,0.222,0.578,0.222,0.799,0l10.775-10.769c0.219-0.22,0.219-0.584,0-0.803L818.242,13.165z"/>
<path fill-rule="evenodd" clip-rule="evenodd" fill="#A29A94" d="M854.242,13.165c-0.217-0.22-0.577-0.22-0.794,0l-8.388,8.359
	c-0.221,0.22-0.579,0.22-0.799,0l-3.675-3.748c-0.107-0.11-0.25-0.166-0.394-0.167c-0.146-0.001-0.292,0.053-0.401,0.167
	l-1.624,1.463c-0.109,0.11-0.168,0.249-0.168,0.394c0,0.147,0.059,0.3,0.168,0.41l3.705,3.893c0.219,0.222,0.578,0.582,0.798,0.803
	l1.591,1.607c0.22,0.222,0.578,0.222,0.799,0l10.775-10.769c0.219-0.22,0.219-0.584,0-0.803L854.242,13.165z"/>
<g>
	<g>
		<path fill="#D1CDCA" d="M885.272,22.564c-0.101-0.036-0.742-0.693-0.342-1.929h-0.005c1.044-1.093,1.94-2.85,1.94-4.58
			c0-2.661-1.841-4.056-3.866-4.056s-3.784,1.395-3.784,4.056c0,1.737,0.818,3.501,1.869,4.593c0.408,1.089-0.324,1.856-0.477,1.916
			c-2.12,0.775-4.608,2.196-4.608,3.599c0,0.379,0,0.148,0,0.523c0,1.91,3.647,2.345,7.021,2.345c3.375,0,6.979-0.435,6.979-2.345
			c0-0.374,0-0.145,0-0.523C890,24.719,887.498,23.31,885.272,22.564z"/>
	</g>
</g>
<g>
	<g>
		<path fill="#A29A94" d="M921.272,22.564c-0.101-0.036-0.742-0.693-0.342-1.929h-0.005c1.044-1.093,1.94-2.85,1.94-4.58
			c0-2.661-1.841-4.056-3.866-4.056s-3.784,1.395-3.784,4.056c0,1.737,0.818,3.501,1.869,4.593c0.408,1.089-0.324,1.856-0.477,1.916
			c-2.12,0.775-4.608,2.196-4.608,3.599c0,0.379,0,0.148,0,0.523c0,1.91,3.647,2.345,7.021,2.345c3.375,0,6.979-0.435,6.979-2.345
			c0-0.374,0-0.145,0-0.523C926,24.719,923.498,23.31,921.272,22.564z"/>
	</g>
</g>
<g>
	<g>
		<path fill-rule="evenodd" clip-rule="evenodd" fill="#D1CDCA" d="M1033,15.001c-0.935,0-1.91,0-1.91,0l-0.623-1.334
			c-0.143-0.333-0.717-0.667-1.218-0.667h-4.409c-0.501,0-1.074,0.334-1.218,0.667L1023,15.001c0,0-1.012,0-1.999,0
			c-1.594,0-2.001,1.332-2.001,1.332v10.001c0,0,1,0.666,2.001,0.666H1033c1.063,0,2-1.333,2-1.333v-9.334
			C1035,16.333,1034.664,15.001,1033,15.001z M1027,25.001c-2.209,0-4-1.792-4-4c0-2.209,1.791-4,4-4s4,1.791,4,4
			C1031,23.209,1029.209,25.001,1027,25.001z M1027,18.333c-1.473,0-2.666,1.194-2.666,2.668c0,1.472,1.193,2.666,2.666,2.666
			s2.667-1.194,2.667-2.666C1029.667,19.527,1028.473,18.333,1027,18.333z"/>
	</g>
</g>
<g>
	<g>
		<path fill-rule="evenodd" clip-rule="evenodd" fill="#A29A94" d="M1069,15.001c-0.935,0-1.91,0-1.91,0l-0.623-1.334
			c-0.143-0.333-0.717-0.667-1.218-0.667h-4.409c-0.501,0-1.074,0.334-1.218,0.667L1059,15.001c0,0-1.012,0-1.999,0
			c-1.594,0-2.001,1.332-2.001,1.332v10.001c0,0,1,0.666,2.001,0.666H1069c1.063,0,2-1.333,2-1.333v-9.334
			C1071,16.333,1070.664,15.001,1069,15.001z M1063,25.001c-2.209,0-4-1.792-4-4c0-2.209,1.791-4,4-4s4,1.791,4,4
			C1067,23.209,1065.209,25.001,1063,25.001z M1063,18.333c-1.473,0-2.666,1.194-2.666,2.668c0,1.472,1.193,2.666,2.666,2.666
			s2.667-1.194,2.667-2.666C1065.667,19.527,1064.473,18.333,1063,18.333z"/>
	</g>
</g>
<g>
	<path fill-rule="evenodd" clip-rule="evenodd" fill="#27AE60" d="M961.827,12h-13.654c-0.098,0-0.173,0.077-0.173,0.172v16.282
		c0,0.095,0.075,0.169,0.173,0.169h13.654c0.097,0,0.173-0.074,0.173-0.169V12.172C962,12.077,961.924,12,961.827,12z
		 M960.765,26.909c0,0.075-0.059,0.137-0.14,0.137h-10.999c-0.076,0-0.143-0.062-0.143-0.137V13.614
		c0-0.079,0.066-0.142,0.143-0.142h10.999c0.081,0,0.14,0.063,0.14,0.142V26.909z"/>
	<g>
		<path fill="#27AE60" d="M961.09,28.313c0-0.198,0-0.091,0-0.384c0-1.252-2.169-2.473-4.098-3.119
			c-0.087-0.031-0.644-0.601-0.296-1.672h-0.005c0.905-0.946,1.681-2.469,1.681-3.969c0-2.307-1.594-3.515-3.35-3.515
			c-1.755,0-3.279,1.208-3.279,3.515c0,1.506,0.709,3.034,1.62,3.98c0.354,0.943-0.281,1.609-0.413,1.66
			c-1.838,0.674-3.994,1.904-3.994,3.119c0,0.293,0,0.185,0,0.384H961.09z"/>
	</g>
</g>
<g>
	<path fill-rule="evenodd" clip-rule="evenodd" fill="#A29A94" d="M997.827,12h-13.654c-0.098,0-0.173,0.077-0.173,0.172v16.282
		c0,0.095,0.075,0.169,0.173,0.169h13.654c0.097,0,0.173-0.074,0.173-0.169V12.172C998,12.077,997.924,12,997.827,12z
		 M996.765,26.909c0,0.075-0.059,0.137-0.14,0.137h-10.999c-0.076,0-0.143-0.062-0.143-0.137V13.614
		c0-0.079,0.066-0.142,0.143-0.142h10.999c0.081,0,0.14,0.063,0.14,0.142V26.909z"/>
	<g>
		<path fill="#A29A94" d="M997.09,28.313c0-0.198,0-0.091,0-0.384c0-1.252-2.169-2.473-4.098-3.119
			c-0.087-0.031-0.644-0.601-0.296-1.672h-0.005c0.905-0.946,1.681-2.469,1.681-3.969c0-2.307-1.594-3.515-3.35-3.515
			c-1.755,0-3.279,1.208-3.279,3.515c0,1.506,0.709,3.034,1.62,3.98c0.354,0.943-0.281,1.609-0.413,1.66
			c-1.838,0.674-3.994,1.904-3.994,3.119c0,0.293,0,0.185,0,0.384H997.09z"/>
	</g>
</g>
<g>
	<g>
		<path fill-rule="evenodd" clip-rule="evenodd" fill="#D1CDCA" d="M1104.668,12h-10.321c-0.745,0-1.347,0.596-1.347,1v13.334
			c0,1.068,0.602,1.666,1.347,1.666h10.321c0.735,0,1.332-0.598,1.332-1.334V13.332C1106,12.596,1105.403,12,1104.668,12z M1100,25
			h-4c-0.553,0-1.002-0.448-1.002-1c0-0.553,0.449-1,1.002-1h4c0.553,0,1,0.447,1,1C1101,24.552,1100.553,25,1100,25z M1103,21h-7
			c-0.553,0-1.002-0.448-1.002-1c0-0.553,0.449-1,1.002-1h7c0.553,0,1.001,0.447,1.001,1C1104.001,20.552,1103.553,21,1103,21z
			 M1103,17h-7c-0.553,0-1.002-0.448-1.002-1c0-0.553,0.449-1,1.002-1h7c0.553,0,1.001,0.447,1.001,1
			C1104.001,16.552,1103.553,17,1103,17z"/>
	</g>
</g>
<g>
	<g>
		<path fill-rule="evenodd" clip-rule="evenodd" fill="#A29A94" d="M1140.668,12h-10.321c-0.745,0-1.347,0.596-1.347,1v13.334
			c0,1.068,0.602,1.666,1.347,1.666h10.321c0.735,0,1.332-0.598,1.332-1.334V13.332C1142,12.596,1141.403,12,1140.668,12z M1136,25
			h-4c-0.553,0-1.002-0.448-1.002-1c0-0.553,0.449-1,1.002-1h4c0.553,0,1,0.447,1,1C1137,24.552,1136.553,25,1136,25z M1139,21h-7
			c-0.553,0-1.002-0.448-1.002-1c0-0.553,0.449-1,1.002-1h7c0.553,0,1.001,0.447,1.001,1C1140.001,20.552,1139.553,21,1139,21z
			 M1139,17h-7c-0.553,0-1.002-0.448-1.002-1c0-0.553,0.449-1,1.002-1h7c0.553,0,1.001,0.447,1.001,1
			C1140.001,16.552,1139.553,17,1139,17z"/>
	</g>
</g>
<path fill-rule="evenodd" clip-rule="evenodd" fill="#F1C40F" d="M1243,12l2.638,5.025l5.362,1.083l-3.732,4.188l0.678,5.694
	L1243,25.554l-4.943,2.438l0.677-5.694L1235,18.108l5.362-1.083L1243,12"/>
<path fill-rule="evenodd" clip-rule="evenodd" fill="#A29A94" d="M1279,12l2.638,5.025l5.362,1.083l-3.732,4.188l0.678,5.694
	L1279,25.554l-4.943,2.438l0.677-5.694L1271,18.108l5.362-1.083L1279,12"/>
<path fill-rule="evenodd" clip-rule="evenodd" fill="#D1CDCA" d="M1315,29.001c-4.419,0-8-3.582-8-8.001c0-4.418,3.581-8,8-8
	c4.418,0,8,3.582,8,8C1323,25.419,1319.418,29.001,1315,29.001z M1315,26c0.559,0,1.012-0.446,1.012-0.997s-0.453-0.997-1.012-0.997
	s-1.012,0.446-1.012,0.997S1314.441,26,1315,26z M1317.167,16.684c-0.529-0.436-1.284-0.679-2.187-0.679
	c-0.665,0-1.232,0.119-1.721,0.315c-0.261,0.104-1.089,0.62-1.261,0.763l0.505,0.756c0.084,0.146,0.219,0.22,0.405,0.22
	c0.078,0,0.167-0.03,0.265-0.092c0.072-0.045,0.643-0.338,0.884-0.411c0.505-0.15,1.06-0.09,1.315-0.011
	c0.348,0.107,0.6,0.312,0.739,0.591c0.093,0.184,0.21,0.69-0.065,1.163c-0.229,0.391-0.587,0.688-0.981,0.953
	c-0.213,0.143-0.407,0.29-0.585,0.444c-0.008,0-0.027,0.014-0.072,0.055c0.021-0.02,0.051-0.036,0.072-0.055
	c0.051-0.002-0.48,0.676-0.48,1.305c0,0.669,0,1,0,1h2v-1c0-0.521,0.252-0.813,0.256-0.887c0.173-0.123,0.955-0.721,1.141-0.936
	c0.348-0.4,0.604-0.929,0.604-1.673C1318,17.743,1317.696,17.119,1317.167,16.684z"/>
<path fill-rule="evenodd" clip-rule="evenodd" fill="#A29A94" d="M1351,29.001c-4.419,0-8-3.582-8-8.001c0-4.418,3.581-8,8-8
	c4.418,0,8,3.582,8,8C1359,25.419,1355.418,29.001,1351,29.001z M1351,26c0.559,0,1.012-0.446,1.012-0.997s-0.453-0.997-1.012-0.997
	s-1.012,0.446-1.012,0.997S1350.441,26,1351,26z M1353.167,16.684c-0.529-0.436-1.284-0.679-2.187-0.679
	c-0.665,0-1.232,0.119-1.721,0.315c-0.261,0.104-1.089,0.62-1.261,0.763l0.505,0.756c0.084,0.146,0.219,0.22,0.405,0.22
	c0.078,0,0.167-0.03,0.265-0.092c0.072-0.045,0.643-0.338,0.884-0.411c0.505-0.15,1.06-0.09,1.315-0.011
	c0.348,0.107,0.6,0.312,0.739,0.591c0.093,0.184,0.21,0.69-0.065,1.163c-0.229,0.391-0.587,0.688-0.981,0.953
	c-0.213,0.143-0.407,0.29-0.585,0.444c-0.008,0-0.027,0.014-0.072,0.055c0.021-0.02,0.051-0.036,0.072-0.055
	c0.051-0.002-0.48,0.676-0.48,1.305c0,0.669,0,1,0,1h2v-1c0-0.521,0.252-0.813,0.256-0.887c0.173-0.123,0.955-0.721,1.141-0.936
	c0.348-0.4,0.604-0.929,0.604-1.673C1354,17.743,1353.696,17.119,1353.167,16.684z"/>
<path fill-rule="evenodd" clip-rule="evenodd" fill="#D1CDCA" d="M1393.35,19.767c-0.273-0.04-0.563-0.287-0.648-0.548l-0.407-0.987
	c-0.128-0.244-0.098-0.624,0.067-0.844l0.66-0.88c0.163-0.219,0.151-0.566-0.031-0.774l-0.723-0.724
	c-0.207-0.182-0.556-0.195-0.776-0.03l-0.878,0.659c-0.221,0.165-0.6,0.197-0.843,0.068l-0.986-0.407
	c-0.264-0.084-0.51-0.374-0.547-0.648l-0.156-1.085c-0.04-0.272-0.295-0.519-0.569-0.548c0,0-0.168-0.019-0.511-0.019
	s-0.513,0.019-0.513,0.019c-0.274,0.029-0.53,0.275-0.568,0.548l-0.156,1.085c-0.038,0.274-0.284,0.564-0.547,0.648l-0.987,0.407
	c-0.243,0.129-0.622,0.097-0.842-0.068l-0.879-0.659c-0.221-0.165-0.569-0.151-0.774,0.03l-0.725,0.724
	c-0.182,0.208-0.196,0.556-0.03,0.774l0.658,0.88c0.166,0.22,0.196,0.6,0.069,0.844l-0.408,0.987
	c-0.084,0.261-0.375,0.508-0.647,0.548l-1.086,0.153c-0.272,0.041-0.519,0.295-0.547,0.569c0,0-0.019,0.171-0.019,0.514
	s0.019,0.514,0.019,0.514c0.028,0.272,0.274,0.528,0.547,0.566l1.086,0.155c0.272,0.038,0.563,0.285,0.647,0.547l0.408,0.987
	c0.127,0.244,0.097,0.623-0.069,0.843l-0.658,0.879c-0.166,0.22-0.205,0.519-0.087,0.664c0.116,0.144,0.45,0.502,0.45,0.502
	c0.003,0.002,0.115,0.104,0.25,0.229c0.137,0.126,0.695,0.3,0.916,0.134l0.879-0.658c0.22-0.166,0.599-0.196,0.842-0.067
	l0.987,0.406c0.263,0.084,0.509,0.375,0.547,0.647l0.156,1.087c0.038,0.271,0.294,0.519,0.568,0.547c0,0,0.17,0.019,0.513,0.019
	s0.511-0.019,0.511-0.019c0.274-0.028,0.529-0.275,0.569-0.547l0.156-1.087c0.037-0.272,0.283-0.563,0.547-0.647l0.986-0.406
	c0.243-0.129,0.622-0.099,0.843,0.066l0.88,0.659c0.22,0.166,0.568,0.152,0.775-0.031l0.723-0.722
	c0.182-0.206,0.193-0.557,0.03-0.776l-0.66-0.879c-0.165-0.22-0.195-0.599-0.067-0.843l0.407-0.987
	c0.085-0.262,0.375-0.509,0.648-0.547l1.086-0.155c0.271-0.038,0.518-0.294,0.547-0.566c0,0,0.018-0.171,0.018-0.514
	s-0.018-0.514-0.018-0.514c-0.029-0.274-0.275-0.528-0.547-0.569L1393.35,19.767z M1387.001,23.002
	c-1.104,0-2.001-0.895-2.001-1.999c0-1.105,0.896-2.002,2.001-2.002c1.103,0,2,0.896,2,2.002
	C1389.001,22.107,1388.104,23.002,1387.001,23.002z"/>
<path fill-rule="evenodd" clip-rule="evenodd" fill="#A29A94" d="M1429.35,19.767c-0.273-0.04-0.563-0.287-0.648-0.548l-0.407-0.987
	c-0.128-0.244-0.098-0.624,0.067-0.844l0.66-0.88c0.163-0.219,0.151-0.566-0.031-0.774l-0.723-0.724
	c-0.207-0.182-0.556-0.195-0.776-0.03l-0.878,0.659c-0.221,0.165-0.6,0.197-0.843,0.068l-0.986-0.407
	c-0.264-0.084-0.51-0.374-0.547-0.648l-0.156-1.085c-0.04-0.272-0.295-0.519-0.569-0.548c0,0-0.168-0.019-0.511-0.019
	s-0.513,0.019-0.513,0.019c-0.274,0.029-0.53,0.275-0.568,0.548l-0.156,1.085c-0.038,0.274-0.284,0.564-0.547,0.648l-0.987,0.407
	c-0.243,0.129-0.622,0.097-0.842-0.068l-0.879-0.659c-0.221-0.165-0.569-0.151-0.774,0.03l-0.725,0.724
	c-0.182,0.208-0.196,0.556-0.03,0.774l0.658,0.88c0.166,0.22,0.196,0.6,0.069,0.844l-0.408,0.987
	c-0.084,0.261-0.375,0.508-0.647,0.548l-1.086,0.153c-0.272,0.041-0.519,0.295-0.547,0.569c0,0-0.019,0.171-0.019,0.514
	s0.019,0.514,0.019,0.514c0.028,0.272,0.274,0.528,0.547,0.566l1.086,0.155c0.272,0.038,0.563,0.285,0.647,0.547l0.408,0.987
	c0.127,0.244,0.097,0.623-0.069,0.843l-0.658,0.879c-0.166,0.22-0.205,0.519-0.087,0.664c0.116,0.144,0.45,0.502,0.45,0.502
	c0.003,0.002,0.115,0.104,0.25,0.229c0.137,0.126,0.695,0.3,0.916,0.134l0.879-0.658c0.22-0.166,0.599-0.196,0.842-0.067
	l0.987,0.406c0.263,0.084,0.509,0.375,0.547,0.647l0.156,1.087c0.038,0.271,0.294,0.519,0.568,0.547c0,0,0.17,0.019,0.513,0.019
	s0.511-0.019,0.511-0.019c0.274-0.028,0.529-0.275,0.569-0.547l0.156-1.087c0.037-0.272,0.283-0.563,0.547-0.647l0.986-0.406
	c0.243-0.129,0.622-0.099,0.843,0.066l0.88,0.659c0.22,0.166,0.568,0.152,0.775-0.031l0.723-0.722
	c0.182-0.206,0.193-0.557,0.03-0.776l-0.66-0.879c-0.165-0.22-0.195-0.599-0.067-0.843l0.407-0.987
	c0.085-0.262,0.375-0.509,0.648-0.547l1.086-0.155c0.271-0.038,0.518-0.294,0.547-0.566c0,0,0.018-0.171,0.018-0.514
	s-0.018-0.514-0.018-0.514c-0.029-0.274-0.275-0.528-0.547-0.569L1429.35,19.767z M1423.001,23.002
	c-1.104,0-2.001-0.895-2.001-1.999c0-1.105,0.896-2.002,2.001-2.002c1.103,0,2,0.896,2,2.002
	C1425.001,22.107,1424.104,23.002,1423.001,23.002z"/>
<g>
	<g>
		<path fill-rule="evenodd" clip-rule="evenodd" fill="#D1CDCA" d="M1462.783,14.361l-0.002,0.001
			c-0.015-0.012-0.027-0.025-0.044-0.037c-0.488-0.336-1.155-0.211-1.489,0.28c-0.334,0.489-0.21,1.159,0.278,1.496
			c0.012,0.009,0.024,0.013,0.037,0.02l-0.004,0.007c1.388,0.972,2.298,2.587,2.298,4.415c0,2.973-2.399,5.384-5.357,5.384
			s-5.357-2.411-5.357-5.384c0-1.828,0.91-3.443,2.298-4.415l-0.004-0.007c0.013-0.007,0.025-0.011,0.037-0.02
			c0.488-0.337,0.612-1.007,0.278-1.496c-0.334-0.491-1.001-0.616-1.489-0.28c-0.017,0.012-0.029,0.025-0.044,0.037l-0.002-0.001
			c-1.942,1.362-3.217,3.62-3.217,6.182c0,4.162,3.357,7.537,7.5,7.537s7.5-3.375,7.5-7.537
			C1466,17.981,1464.726,15.724,1462.783,14.361z M1458.5,21.644c0.592,0,1.071-0.479,1.071-1.072v-7.499
			c0-0.591-0.479-1.072-1.071-1.072s-1.071,0.481-1.071,1.072v7.499C1457.429,21.164,1457.908,21.644,1458.5,21.644z"/>
	</g>
</g>
<g>
	<g>
		<path fill-rule="evenodd" clip-rule="evenodd" fill="#A29A94" d="M1498.783,14.361l-0.002,0.001
			c-0.015-0.012-0.027-0.025-0.044-0.037c-0.488-0.336-1.155-0.211-1.489,0.28c-0.334,0.489-0.21,1.159,0.278,1.496
			c0.012,0.009,0.024,0.013,0.037,0.02l-0.004,0.007c1.388,0.972,2.298,2.587,2.298,4.415c0,2.973-2.399,5.384-5.357,5.384
			s-5.357-2.411-5.357-5.384c0-1.828,0.91-3.443,2.298-4.415l-0.004-0.007c0.013-0.007,0.025-0.011,0.037-0.02
			c0.488-0.337,0.612-1.007,0.278-1.496c-0.334-0.491-1.001-0.616-1.489-0.28c-0.017,0.012-0.029,0.025-0.044,0.037l-0.002-0.001
			c-1.942,1.362-3.217,3.62-3.217,6.182c0,4.162,3.357,7.537,7.5,7.537s7.5-3.375,7.5-7.537
			C1502,17.981,1500.726,15.724,1498.783,14.361z M1494.5,21.644c0.592,0,1.071-0.479,1.071-1.072v-7.499
			c0-0.591-0.479-1.072-1.071-1.072s-1.071,0.481-1.071,1.072v7.499C1493.429,21.164,1493.908,21.644,1494.5,21.644z"/>
	</g>
</g>
<circle fill="#A29A94" cx="199" cy="21" r="8"/>
<circle fill="#D1CDCA" cx="199" cy="21" r="4.423"/>
<g>
	<path fill-rule="evenodd" clip-rule="evenodd" fill="#D1CDCA" d="M735.057,15.627c0,0,0.402-0.772,1.487-0.772h3.343v-1.081
		c0,0-0.402-0.773-1.485-0.773h-8.915c-1.061,0-1.486,0.773-1.486,0.773v7.431c0,0,0.396,0.713,1.479,0.713h1.222
		c0.155,0,0.272,0.141,0.272,0.316v2.488c0,0.104,0.027,0.169,0.12,0.169c0.033,0,0.066-0.021,0.12-0.065l3.36-2.63
		c0.108-0.124,0.306-0.192,0.483-0.23V15.627z"/>
	<path fill-rule="evenodd" clip-rule="evenodd" fill="#D1CDCA" d="M741.873,25.55l3.357,2.63c0.055,0.043,0.09,0.065,0.121,0.065
		c0.092,0,0.121-0.064,0.121-0.169v-2.488c0-0.176,0.115-0.316,0.271-0.316h1.221c1.084,0,1.479-0.713,1.479-0.713v-7.432
		c0,0-0.424-0.772-1.484-0.772h-8.914c-1.086,0-1.488,0.772-1.488,0.772v7.432c0,0,0.479,0.713,1.492,0.713h2.971
		C741.02,25.271,741.643,25.289,741.873,25.55z"/>
</g>
<g>
	<path fill-rule="evenodd" clip-rule="evenodd" fill="#A29A94" d="M771.057,15.627c0,0,0.402-0.772,1.487-0.772h3.343v-1.081
		c0,0-0.402-0.773-1.485-0.773h-8.915c-1.061,0-1.486,0.773-1.486,0.773v7.431c0,0,0.396,0.713,1.479,0.713h1.222
		c0.155,0,0.272,0.141,0.272,0.316v2.488c0,0.104,0.027,0.169,0.12,0.169c0.033,0,0.066-0.021,0.12-0.065l3.36-2.63
		c0.108-0.124,0.306-0.192,0.483-0.23V15.627z"/>
	<path fill-rule="evenodd" clip-rule="evenodd" fill="#A29A94" d="M777.873,25.55l3.357,2.63c0.055,0.043,0.09,0.065,0.121,0.065
		c0.092,0,0.121-0.064,0.121-0.169v-2.488c0-0.176,0.115-0.316,0.271-0.316h1.221c1.084,0,1.479-0.713,1.479-0.713v-7.432
		c0,0-0.424-0.772-1.484-0.772h-8.914c-1.086,0-1.488,0.772-1.488,0.772v7.432c0,0,0.479,0.713,1.492,0.713h2.971
		C777.02,25.271,777.643,25.289,777.873,25.55z"/>
</g>
<path fill-rule="evenodd" clip-rule="evenodd" fill="#D1CDCA" d="M1171,12l2.638,5.025l5.362,1.083l-3.732,4.188l0.678,5.694
	L1171,25.554l-4.943,2.438l0.677-5.694L1163,18.108l5.362-1.083L1171,12"/>
<path fill-rule="evenodd" clip-rule="evenodd" fill="#A29A94" d="M1207,12l2.638,5.025l5.362,1.083l-3.732,4.188l0.678,5.694
	L1207,25.554l-4.943,2.438l0.677-5.694L1199,18.108l5.362-1.083L1207,12"/>
<g>
	<g>
		<path fill="#27AE60" d="M1522.44,16.881H1521v5.399h1.44v-1.259l3.059,0.764v2.116c0,0.694,0.566,1.259,1.261,1.259h5.041
			c0.694,0,1.259-0.564,1.259-1.259v-0.226l3.061,0.765V14.72l-13.68,3.421V16.881z M1526.58,22.056l5.4,1.35v0.496
			c0,0.099-0.082,0.18-0.18,0.18h-5.041c-0.1,0-0.18-0.081-0.18-0.18V22.056z M1537.199,14.45v10.261L1539,25.16V14L1537.199,14.45z
			"/>
	</g>
</g>
<g>
	<g>
		<path fill="#A29A94" d="M1558.44,16.881H1557v5.399h1.44v-1.259l3.059,0.764v2.116c0,0.694,0.566,1.259,1.261,1.259h5.041
			c0.694,0,1.259-0.564,1.259-1.259v-0.226l3.061,0.765V14.72l-13.68,3.421V16.881z M1562.58,22.056l5.4,1.35v0.496
			c0,0.099-0.082,0.18-0.18,0.18h-5.041c-0.1,0-0.18-0.081-0.18-0.18V22.056z M1573.199,14.45v10.261L1575,25.16V14L1573.199,14.45z
			"/>
	</g>
</g>
</svg>
