<?xml version="1.0" encoding="utf-8"?>
<!-- Generator: Adobe Illustrator 15.0.0, SVG Export Plug-In . SVG Version: 6.00 Build 0)  -->
<!DOCTYPE svg PUBLIC "-//W3C//DTD SVG 1.1//EN" "http://www.w3.org/Graphics/SVG/1.1/DTD/svg11.dtd">
<svg version="1.1" id="Arrow" xmlns="http://www.w3.org/2000/svg" xmlns:xlink="http://www.w3.org/1999/xlink" x="0px" y="0px"
	 width="132px" height="44px" viewBox="0 0 132 44" enable-background="new 0 0 132 44" xml:space="preserve">
<path fill="#27AE60" d="M22,12.001c-5.523,0-10,4.477-10,9.999s4.477,9.999,10,9.999c5.522,0,10-4.477,10-9.999
	S27.522,12.001,22,12.001z M26.998,23H23v3.999c0,0.553-0.448,1-1.001,1c-0.552,0-1-0.447-1-1V23H17c-0.553,0-1-0.448-1-1.001
	s0.447-1,1-1h4v-4C21,16.447,21.447,16,22,16s1,0.447,1,0.999v4h4c0.552,0,0.998,0.447,0.998,1S27.551,23,26.998,23z"/>
<path fill="#2ECC71" d="M66,12.001c-5.523,0-10,4.477-10,9.999s4.477,9.999,10,9.999c5.522,0,10-4.477,10-9.999
	S71.522,12.001,66,12.001z M70.998,23H67v3.999c0,0.553-0.448,1-1.001,1c-0.552,0-1-0.447-1-1V23H61c-0.553,0-1-0.448-1-1.001
	s0.447-1,1-1h4v-4C65,16.447,65.447,16,66,16s1,0.447,1,0.999v4h4c0.552,0,0.998,0.447,0.998,1S71.551,23,70.998,23z"/>
<path fill="#219452" d="M110,12.001c-5.523,0-10,4.477-10,9.999s4.477,9.999,10,9.999c5.522,0,10-4.477,10-9.999
	S115.522,12.001,110,12.001z M114.998,23H111v3.999c0,0.553-0.448,1-1.001,1c-0.552,0-1-0.447-1-1V23H105c-0.553,0-1-0.448-1-1.001
	s0.447-1,1-1h4v-4c0-0.552,0.447-0.999,1-0.999s1,0.447,1,0.999v4h4c0.552,0,0.998,0.447,0.998,1S115.551,23,114.998,23z"/>
</svg>
