<?xml version="1.0" encoding="utf-8"?>
<!-- Generator: Adobe Illustrator 15.0.0, SVG Export Plug-In . SVG Version: 6.00 Build 0)  -->
<!DOCTYPE svg PUBLIC "-//W3C//DTD SVG 1.1//EN" "http://www.w3.org/Graphics/SVG/1.1/DTD/svg11.dtd">
<svg version="1.1" id="Arrow" xmlns="http://www.w3.org/2000/svg" xmlns:xlink="http://www.w3.org/1999/xlink" x="0px" y="0px"
	 width="308px" height="44px" viewBox="0 0 308 44" enable-background="new 0 0 308 44" xml:space="preserve">
<g>
	<rect x="12" y="28" fill="#FFFFFF" width="20" height="4"/>
	<rect x="12" y="12" fill="#FFFFFF" width="20" height="4"/>
	<rect x="12" y="20" fill="#FFFFFF" width="20" height="4"/>
</g>
<path fill="#FFFFFF" d="M100.168,29.542c-0.224,0.222-0.224,0.586,0,0.811l1.482,1.481c0.221,0.222,0.586,0.222,0.811,0l5.699-5.698
	c0.22-0.223,0.639-0.297,0.924-0.164c0,0,2,0.925,3.47,0.925c4.112,0,7.446-3.334,7.446-7.447c0-4.116-3.333-7.449-7.444-7.449
	c-4.112,0-7.448,3.333-7.448,7.449c0,1.469,0.924,3.47,0.924,3.47c0.131,0.286,0.059,0.702-0.162,0.927L100.168,29.542z
	 M108.545,19.448c0-2.212,1.799-4.011,4.011-4.011c2.21,0,4.012,1.799,4.012,4.011c0,2.21-1.802,4.01-4.012,4.01
	C110.344,23.458,108.545,21.658,108.545,19.448z"/>
<path fill="#FFFFFF" d="M66,12c-5.523,0-10,4.477-10,9.999s4.477,9.999,10,9.999c5.522,0,10-4.477,10-9.999S71.522,12,66,12z
	 M70.998,22.999H67v3.999c0,0.553-0.448,1-1.001,1c-0.552,0-1-0.447-1-1v-3.999H61c-0.553,0-1-0.448-1-1.001s0.447-1,1-1h4v-4
	c0-0.552,0.447-0.999,1-0.999s1,0.447,1,0.999v4h4c0.552,0,0.998,0.447,0.998,1S71.551,22.999,70.998,22.999z"/>
<g>
	<rect x="151" y="28" fill="#FFFFFF" width="13" height="4"/>
	<rect x="151" y="12" fill="#FFFFFF" width="13" height="4"/>
	<rect x="151" y="20" fill="#FFFFFF" width="13" height="4"/>
</g>
<g>
	<rect x="144" y="28" fill="#FFFFFF" width="4" height="4"/>
	<rect x="144" y="12" fill="#FFFFFF" width="4" height="4"/>
	<rect x="144" y="20" fill="#FFFFFF" width="4" height="4"/>
</g>
<path fill="#FFFFFF" d="M201,32l3-3l-7-7l7-7l-3-3l-10,10L201,32z"/>
<path fill="#FFFFFF" d="M250.168,30.331h-0.836c0,0-0.832,0-0.832-0.833v-2.916c0-0.229-0.186-0.414-0.418-0.414
	c-0.229,0-0.414,0.186-0.414,0.414l-0.008,3.581c0,0.507-1.674,1.837-5.41,1.837s-5.41-1.33-5.41-1.837l-0.008-3.581
	c0-0.229-0.186-0.414-0.414-0.414c-0.232,0-0.418,0.186-0.418,0.414v2.916c0,0.833-0.832,0.833-0.832,0.833h-0.836
	c0,0-0.832,0-0.832-0.833v-4.373c0-2.433,2.412-4.502,5.773-5.283c0,0,1.031,0.92,2.977,0.92c1.944,0,2.977-0.92,2.977-0.92
	c3.361,0.781,5.773,2.851,5.773,5.283v4.373C251,30.331,250.168,30.331,250.168,30.331z M242.23,19.501
	c-2.069,0-3.75-1.681-3.75-3.75c0-2.071,1.679-3.751,3.75-3.751c2.072,0,3.75,1.68,3.75,3.751
	C245.98,17.82,244.302,19.501,242.23,19.501z"/>
<g>
	<g>
		<path fill="#FFFFFF" d="M291.976,14.938l-0.002,0.001c-0.019-0.015-0.035-0.033-0.056-0.048c-0.62-0.418-1.469-0.264-1.893,0.349
			c-0.425,0.609-0.266,1.443,0.354,1.862c0.017,0.008,0.031,0.015,0.048,0.024l-0.004,0.008c1.762,1.21,2.92,3.216,2.92,5.491
			c0,3.698-3.051,6.696-6.81,6.696c-3.76,0-6.809-2.998-6.809-6.696c0-2.275,1.156-4.281,2.921-5.491l-0.007-0.008
			c0.016-0.01,0.033-0.017,0.048-0.024c0.62-0.419,0.778-1.252,0.354-1.862c-0.426-0.61-1.272-0.767-1.893-0.349
			c-0.021,0.015-0.037,0.033-0.057,0.048l-0.002-0.001c-2.471,1.693-4.09,4.502-4.09,7.688c0,5.177,4.268,9.374,9.533,9.374
			c5.263,0,9.532-4.197,9.532-9.374C296.065,19.44,294.446,16.632,291.976,14.938z M286.533,23.826c0.75,0,1.36-0.611,1.36-1.365
			v-9.126c0-0.738-0.61-1.335-1.36-1.335c-0.753,0-1.361,0.597-1.361,1.335v9.124C285.172,23.215,285.78,23.826,286.533,23.826z"/>
	</g>
</g>
</svg>
