<?xml version="1.0" encoding="utf-8"?>
<!-- Generator: Adobe Illustrator 15.0.0, SVG Export Plug-In . SVG Version: 6.00 Build 0)  -->
<!DOCTYPE svg PUBLIC "-//W3C//DTD SVG 1.1//EN" "http://www.w3.org/Graphics/SVG/1.1/DTD/svg11.dtd">
<svg version="1.1" id="Layer_1" xmlns="http://www.w3.org/2000/svg" xmlns:xlink="http://www.w3.org/1999/xlink" x="0px" y="0px"
	 width="48px" height="16px" viewBox="0 0 48 16" enable-background="new 0 0 48 16" xml:space="preserve">
<g>
	<polygon fill="#F1C40F" points="15,6.347 10.309,5.398 8,1 8,12.866 12.325,14.999 11.733,10.015 	"/>
	<polygon fill="#F39C12" points="5.695,5.398 1,6.347 4.268,10.015 3.674,15 8,12.866 8,1 	"/>
</g>
<g>
	<polygon fill="#F1C40F" points="31,6.347 26.309,5.398 24,1 24,12.866 28.325,14.999 27.733,10.015 	"/>
	<polygon fill="#F39C12" points="21.695,5.398 17,6.347 20.268,10.015 19.674,15 24,12.866 24,1 	"/>
</g>
<polygon fill="#3498DB" points="31,4.635 28.396,4.635 28.396,2 26.6,2 26.6,4.635 24,4.635 24,6.405 26.6,6.405 26.6,9 28.396,9 
	28.396,6.405 31,6.405 "/>
<circle fill="#27AE60" cx="40" cy="8" r="7"/>
<circle fill="#2ECC71" cx="40" cy="7.999" r="3.361"/>
</svg>
