<?xml version="1.0" encoding="utf-8"?>
<!-- Generator: Adobe Illustrator 15.0.0, SVG Export Plug-In . SVG Version: 6.00 Build 0)  -->
<!DOCTYPE svg PUBLIC "-//W3C//DTD SVG 1.1//EN" "http://www.w3.org/Graphics/SVG/1.1/DTD/svg11.dtd">
<svg version="1.1" id="Avatar" xmlns="http://www.w3.org/2000/svg" xmlns:xlink="http://www.w3.org/1999/xlink" x="0px" y="0px"
	 width="270px" height="360px" viewBox="0 0 270 360" enable-background="new 0 0 270 360" xml:space="preserve">
<rect fill="#F6F8F9" width="270" height="360"/>
<g>
	<defs>
		<rect id="SVGID_1_" width="270" height="360"/>
	</defs>
	<clipPath id="SVGID_2_">
		<use xlink:href="#SVGID_1_"  overflow="visible"/>
	</clipPath>
	<path id="neck_and_shoulders_16_" clip-path="url(#SVGID_2_)" fill="#FACEB2" d="M240.453,298.061
		c-17.457-10.924-49.474-4.41-69.126-26.422c-15.559-17.437-11.649-52.755-5.122-71.726c-8.123,1.742-52.285,1.742-60.408,0
		c6.528,18.971,10.448,54.289-5.119,71.726c-11.567,12.954-41.014,8.831-69.128,26.422C16.6,307.402,5.536,326.926-6,361.443h284
		C266.464,326.926,255.403,307.402,240.453,298.061z"/>
	<path id="blouse_9_" clip-path="url(#SVGID_2_)" fill="#F1B2AC" d="M239.22,294.931c-119.137,27.536-201.121-3.988-210.778,2.051
		C13.5,306.328,5.536,326.926-6,361.443h284C273.843,335.212,255.758,304.794,239.22,294.931z"/>
	<path clip-path="url(#SVGID_2_)" fill="#F7B998" d="M160.965,244.405c-1.633-15.784,1.318-33.086,5.239-44.492
		c-8.123,1.742-52.285,1.742-60.408,0c6.272,18.227,10.083,51.491-3.422,69.533C126.018,267.301,151.174,255.131,160.965,244.405z"
		/>
	<path id="hair_19_" clip-path="url(#SVGID_2_)" fill="#D88F88" d="M130.792,37.895c-86.726,0-104.287,110.059-73.383,168.086
		c31.055,58.313-62.693,68.676-19.774,109.028c22.494,21.154,71.325,5.007,73.145,38.354c0.311-0.848,28.671-24.964-0.096-61.447
		c-13.918-17.656,10.311-39.172,0.096-65.806c0,0,33.92-19.159,50.133-0.431c0,0-2.209,16.667,2.792,32.212
		c47.967-25.626,57.364-106.242,57.902-124.324C223.025,85.965,192.734,37.895,130.792,37.895z"/>
	<path id="face_11_" clip-path="url(#SVGID_2_)" fill="#FACEB2" d="M137.37,82.126c-45.516-0.451-62.553,32.756-61.993,39.052
		c0.58,6.527-3.644,48.295,9.628,72.801c6.172,11.403,29.352,42.667,50.817,43.715c21.483-0.62,45.285-31.42,51.671-42.698
		c13.768-24.237,10.366-66.084,11.079-72.599C199.257,116.12,182.89,82.577,137.37,82.126z"/>
	<path clip-path="url(#SVGID_2_)" fill="#D88F88" d="M220.839,120.61c-1.61-17.933-22.627-99.394-106.922-75.805
		c-30.558,8.554-48.982,40.9-49.064,82.136c-0.036,18.637,10.559,44.608,13.999,52.917c-2.181-6.713-3.323-22.917-1.695-28.443
		c1.626-0.676,3.247-1.378,4.856-2.116c7.983-3.621,15.767-7.708,23.477-11.901c18.764-10.218,66.861-34.515,70.066-37.779
		c0.331,3.681,15.127,35.708,19.146,49.71c4.311,15.032,9.218,62.755-10.875,91.311C210.407,219.724,225.598,173.683,220.839,120.61
		z"/>
</g>
</svg>
