<?xml version="1.0" encoding="utf-8"?>
<!-- Generator: Adobe Illustrator 15.0.0, SVG Export Plug-In . SVG Version: 6.00 Build 0)  -->
<!DOCTYPE svg PUBLIC "-//W3C//DTD SVG 1.1//EN" "http://www.w3.org/Graphics/SVG/1.1/DTD/svg11.dtd">
<svg version="1.1" id="Avatar" xmlns="http://www.w3.org/2000/svg" xmlns:xlink="http://www.w3.org/1999/xlink" x="0px" y="0px"
	 width="270px" height="360px" viewBox="0 0 270 360" enable-background="new 0 0 270 360" xml:space="preserve">
<rect fill="#F6F8F9" width="270" height="360"/>
<g>
	<defs>
		<rect id="SVGID_1_" width="270" height="360"/>
	</defs>
	<clipPath id="SVGID_2_">
		<use xlink:href="#SVGID_1_"  overflow="visible"/>
	</clipPath>
	<path id="neck_and_shoulders_1_" clip-path="url(#SVGID_2_)" fill="#FACEB2" d="M273.292,316.75
		c-16.498-12.36-48.538-14.428-65.907-24.128c0,0-21.492-8.464-27.112-18.811c0,0-7.172-33.476-1.125-78.135
		c-4.177,0.886-29.396-1.174-44.714,0c-15.317-1.174-40.537,0.886-44.714,0c6.046,44.659-1.125,78.135-1.125,78.135
		c-5.621,10.347-27.113,18.811-27.113,18.811c-17.369,9.7-49.408,11.768-65.908,24.128c-11.213,8.397-20.418,45.92-24.14,66.794h163
		h163C293.714,362.67,284.506,325.147,273.292,316.75z"/>
	<path id="neck_shadow_1_" clip-path="url(#SVGID_2_)" fill="#F7B998" d="M176.837,239.835c-0.363-12.393,0.058-27.5,2.312-44.158
		c-4.177,0.886-29.396-1.174-44.714,0c-15.317-1.174-40.537,0.886-44.714,0c6.046,44.659-1.125,78.135-1.125,78.135
		c-1.238,2.267-3.25,4.426-5.617,6.448C109.602,278.695,149.687,273.016,176.837,239.835z"/>
	<path id="t-shirt_1_" clip-path="url(#SVGID_2_)" fill="#D6DBDD" d="M297.435,383.544c-3.721-20.874-12.929-58.396-24.143-66.794
		c-16.498-12.36-48.538-14.428-65.907-24.128c0,0-2.259-0.902-5.487-2.456c-16.208,15.723-40.272,25.725-67.2,25.725
		c-27.028,0-51.177-10.067-67.381-25.891c-3.408,1.658-5.835,2.622-5.835,2.622c-17.369,9.7-49.408,11.768-65.908,24.128
		c-11.213,8.397-20.418,45.92-24.14,66.794h163H297.435z"/>
	<g id="ears_1_" clip-path="url(#SVGID_2_)">
		<path fill="#FACEB2" d="M212.26,139.546c-0.619-1.638-1.555-4.943-3.994-5.496c-2.666-0.611-8.956,4.727-9.021,4.712
			c0,0-1.718,33.283-4.649,47.578c3.616-0.164,11.042-4.437,13.9-10.305C211.166,170.56,214.395,145.246,212.26,139.546z"/>
		<path fill="#FACEB2" d="M56.57,139.546c0.619-1.638,1.556-4.943,3.995-5.496c2.667-0.611,8.956,4.727,9.019,4.712
			c0,0,1.707,33.283,4.65,47.578c-3.616-0.164-11.057-4.437-13.913-10.305C57.665,170.56,54.424,145.246,56.57,139.546z"/>
	</g>
	<path id="face_2_" clip-path="url(#SVGID_2_)" fill="#FACEB2" d="M134.149,52.407c-46.495,2.616-69.232,30.903-69.22,55.738
		c0.003,9.095,2.944,77.114,10.769,101.936c2.123,6.754,28.015,32.485,39.638,43.05h37.86c11.623-10.565,37.28-36.296,39.402-43.05
		c7.84-24.822,10.767-92.84,10.77-101.936C203.381,83.31,180.646,55.023,134.149,52.407z"/>
	<path id="hair_1_" clip-path="url(#SVGID_2_)" fill="#87919C" d="M207.716,91.46c-0.284-4.893-12.904-29.199-17.352-32.703
		c-7.731-6.105-33.356-16.027-40.736-17.906c-20.198-5.142-47.671,0.714-50.851,8.949c-0.072-0.33-6.778-0.709-12.458,2.544
		c-9.31,5.333-23.585,26.058-28.763,41.103c-1.463,4.25,5.409,35.58,6.181,41.391c1.15,8.684,3.133,19.55,7.29,37.33
		c-1.372-32.424,2.401-29.636,2.554-38.289c0.675-38.291,9.27-42.568,14.913-45.876c7.263-4.235,36.901,0.219,43.05,1.65
		c0.002,0,0.027,0.005,0.027,0.005h0.001h0.001c0,0,0.024-0.005,0.027-0.005c6.148-1.432,35.785-5.886,43.05-1.65
		c5.642,3.308,19.946,7.585,20.621,45.876c0.153,8.652,3.926,5.864,2.555,38.289c5.542-20.177,7.355-32.424,7.874-37.615
		C206.967,121.528,208.503,104.448,207.716,91.46z"/>
</g>
</svg>
