<svg width="150" xmlns="http://www.w3.org/2000/svg" height="34.084" viewBox="0 0 150 34.084" xmlns:xlink="http://www.w3.org/1999/xlink" enable-background="new 0 0 150 34.084">
<path fill="#e41614" d="m135.45,11.5c-1.22,0-1.22,1.89 0,1.89s1.22-1.89 0-1.89m-81.38-4.51c-.6-.17-1.69-.23-2.08-.81-.62-.93 2.28-.51 2.54-.42 1.02,.36 1.99,.71 2.46-.71 .45-1.37-1.61-1.8-2.52-1.93-2.27-.33-5.99,.4-5.4,3.54 .27,1.48 1.63,2.25 2.96,2.65 .88,.26 2,.37 2.81,.83 .74,.41-.36,1.07-.78,1.12-.55,.06-1.12-.08-1.64-.27-.52-.19-1.06-.74-1.6-.8-.87-.09-1.31,1.46-1.03,2.11 .57,1.34 2.61,1.62 3.87,1.6 1.52-.02 3.44-.54 4.06-2.1 1.05-2.67-1.51-4.17-3.64-4.79m-33.53-3.17c-2.8,.12-5.15,2.16-5.12,5.07 .04,2.78 2.11,5.04 4.94,5.11 2.84,.07 5.35-1.83 5.47-4.77 .12-3.06-2.19-5.53-5.29-5.4m.14,7.59c-2.61,.05-2.87-5-.17-5 2.68,0 2.93,4.96 .17,5m22.12-.37c-.02-.55-.06-1.11-.12-1.67 .34,.68 3.53-.01 3.87-.59 .22-.38 .13-.85-.04-1.23-.27-.58-.94-.33-1.43-.31-.58,.02-1.16,.04-1.75,.06-.28,.01-.57,.02-.85,.03-.04-.41-.1-.82-.17-1.23 1.34-.01 3.37,.19 4.61-.46 .66-.35 .76-1.06 .47-1.71-.32-.75-.61-.69-1.38-.69-1.72-.01-3.64-.11-5.34,.2-2.29,.43-1.47,1.93-1.44,3.58 .02,1.79-.04,3.91 .47,5.64 .54,1.8 3.22,1.15 4.63,1.09 1.2-.04 4.44,.1 3.63-2.01-.32-.86-.61-.75-1.51-.73-1.22,.01-2.43,.03-3.65,.04m-15.03-7.45c-.82,.12-1.54,.68-1.49,1.58 .05,1.12 .53,1.16 1.53,1.15 .91,0 2.25-.51 2.32,.61 .05,.78 .08,1.56 .12,2.34 .08,1.92 .3,5.55 3.17,4.25 .98-.44 .49-1.66 .4-2.55-.15-1.63-.38-3.26-.68-4.88 1.48-.03 5.19,.34 4.46-2.16-.39-1.35-3.08-.76-4.19-.75-1.88,.01-3.78,.1-5.65,.39m-5.4-.54c2.01,0 2.02-3.11-.05-3.04-1.91,.05-1.9,3.04 .05,3.04m-9.89,.6c-1.08-.79-1.99-.23-2.65,.75-.92,1.37-1.68,2.88-2.51,4.31-.99-1.83-4.41-8.69-5.95-3.47-.36,1.23-.54,2.53-.86,3.78-.3,1.19-.91,3.01-.28,4.19 .32,.6 2.39,1.43 2.63,.37 .39-1.72 .73-3.45 .96-5.2 .71,1.33 1.39,3.15 2.74,3.97 1.82,1.09 3.32-3.11 3.95-4.2 .2,1.46 .31,3.18 .84,4.56 .22,.58 .64,1.12 1.3,1.17 .51,.04 1.62-.22 1.84-.78 .19-.5-.15-1.5-.22-2.01-.11-.82-.26-1.64-.41-2.46-.31-1.69-.62-3.43-1.39-4.98m5.42-.5c2.01,0 2.02-3.11-.04-3.04-1.91,.05-1.9,3.04 .04,3.04m70.78,5.99c-.72-1.5-1.56-2.93-2.28-4.44-.56-1.18-1.62-2.24-3.07-1.84-1.54,.42-1.84,2.46-2.27,3.75-.54,1.64-1.31,3.58-1.36,5.33-.04,1.52 1.17,2.07 2.53,1.71 .18-.04 .36-1.22 .4-1.36 .23-.83 1.63-.56 2.43-.6 .48-.02 1.36-.31 1.56,.28 .19,.59 .5,1.27 .97,1.7 .62,.58 1.43,.37 2.04-.13 .88-.74 .41-1.32 .04-2.2 .68-.17 .97-.75 .8-1.42-.26-.98-.99-.77-1.8-.77m-5.23-.04c.21-.86 .43-1.72 .64-2.58 .4,.86 .81,1.72 1.21,2.58-.62,0-1.24,0-1.86,0m31.52,1.79c-.02-.54-.08-1.08-.12-1.62 .2,.61 3.54-.11 3.84-.64 .22-.38 .12-.85-.05-1.23-.27-.57-.93-.32-1.42-.3-.58,.02-1.16,.05-1.74,.08-.28,.01-.57,.03-.85,.05-.06-.41-.12-.82-.19-1.23 1.34-.03 3.37,.15 4.6-.51 .66-.35 .75-1.06 .46-1.71-.39-.89-.99-.69-1.89-.68-1.65,.01-3.61-.13-5.22,.33-.77,.22-1.34,.72-1.36,1.57-.01,.4 .12,.69 .25,1.06 .2,.58 .09,1.36 .12,1.97 .07,1.44-.13,3.81 .73,5.07 .89,1.3 4.26,.43 5.59,.35 1.5-.08 3.66-.7 2.38-2.6-.27-.4-1.35-.12-1.76-.11-1.12,.04-2.24,.09-3.36,.14m-24.3-7.3c-.99,.15-1.67,.89-1.44,1.92 .29,1.34 2.06,.8 3.14,.79 .97-.01 .67,.86 .72,1.67 .05,.82 .05,1.64 .14,2.45 .15,1.49 .7,3.62 2.66,2.99 1.16-.37 .97-1.03 .88-2.12-.15-1.74-.41-3.48-.73-5.2 1.64-.06 4.66,.03 3.73-2.47-.34-.92-3.15-.44-3.99-.43-1.71,.02-3.43,.12-5.12,.38m38.49,1.27c-.24,1.11-.4,2.26-.3,3.4-.93-1.03-1.86-2.07-2.86-3.05-.72-.71-1.69-1.89-2.79-1.97-2.31-.15-1.74,3.32-1.7,4.64 .03,1.44-.32,5.78 1.99,5.72 .38-.01 .81-.14 1.16-.29 .6-.26 .38-.74 .34-1.32-.09-1.36-.24-2.73-.44-4.08 1.64,1.58 3.21,3.2 4.74,4.9 .58,.65 1.22,.88 2.03,.45 .99-.53 1.14-.93 1.02-2-.12-1.14-.29-2.28-.3-3.43-.01-1.27 .39-2.45 .5-3.7 .07-.86-1.25-1.4-2.03-1.18-.82,.22-1.19,1.18-1.35,1.92m-23.02,2.12c-.6-.17-1.69-.23-2.08-.81-.62-.93 2.28-.51 2.54-.42 1.02,.36 1.99,.71 2.46-.71 .45-1.37-1.61-1.8-2.53-1.93-2.21-.32-5.58,.25-5.45,3.17 .06,1.4 1.24,2.45 2.5,2.86 .98,.31 2,.56 2.99,.85 .98,.29 .35,1.01-.36,1.11-.63,.09-1.28-.11-1.85-.38-.52-.24-1.24-1.11-1.82-.64-.67,.54-1.13,1.46-.62,2.26 .77,1.24 2.75,1.47 4.07,1.41 1.45-.07 3.2-.6 3.78-2.08 1.06-2.7-1.51-4.06-3.64-4.68m-32.93,4c-.22-1.99-.36-4.08-.78-6.05-.25-1.2-1.59-2.49-2.8-1.39-.83,.75-.12,3.03-.04,3.99 .12,1.58 .04,3.49 .54,5.02 .52,1.59 2.22,1.38 3.57,1.18 1.06-.15 2.17-.11 3.23-.34 1.23-.26 1.83-1.1 1.11-2.29-.37-.62-1.05-.32-1.68-.29-1.04,.05-2.09,.11-3.14,.17m-9.69-7.84c-1.12-.01-3.71,.03-4.41,1.11-.41,.64-.09,1.28 .08,1.93 .24,.93 .17,2.04 .27,3.01 .12,1.21 .09,2.77 .72,3.86 .49,.85 2.46,1.14 2.96,.1 .2-.43 0-1.05-.06-1.49-.18-1.06 .14-.94 1.11-1.2 1.39-.38 3.01-.89 3.68-2.29 1.55-3.21-1.6-5-4.35-5.03m-.83,4.9c.22-.1-.18-1-.22-1.16-.22-.83 .58-.81 1.25-.86 .68-.04 1.88,.29 1.2,1.17-.51,.66-1.44,.8-2.22,.85m86.98,3.48c-.87,.01-1.74,.02-2.62,.03-.49,0-.29-.71-.32-1 .27,.5 2.5-.02 2.42-.76-.08-.82-.96-.53-1.55-.51-.79,.03-.97,.09-1.09-.7 .87-.01 2.45,.31 3.06-.51 .74-.99-.59-1.23-1.19-1.25-.95-.03-4.32-.25-3.91,1.5 .26,1.13 .23,2.15 .33,3.32 .1,1.22 .59,1.6 1.77,1.62 .94,.01 4.49,.07 3.11-1.72m-8.27-2.21c-.37-.1-.77-.19-1.1-.39-.59-.36 .43-.53 .7-.47 .65,.13 1.25,.65 1.87,.12 .7-.6 .09-1.3-.57-1.5-1.15-.34-3-.29-3.68,.87-.88,1.51 .57,2.54 1.84,2.89 .28,.07 1.46,.18 1.55,.53 .2,.79-1.35,.47-1.63,.36-.63-.24-1.16-.82-1.56,.1-.39,.91 .76,1.46 1.46,1.6 1.1,.22 2.8,.01 3.31-1.15 .71-1.63-.86-2.58-2.19-2.97"/>
<path fill="#1a171b" d="m34.04,28.65c-.37-1.63-.12-7.01-3.33-4.64-1.07,.79-2.9,3.55-1.96,4.94 1.32,1.95 3.67-2.81 3.84-2.59 .18,.24 .17,1.19 .22,1.51 .09,.63-.07,1.33 .24,1.92 .18,.35 .62,.65 1.02,.42 .52-.29 .05-1.15-.03-1.56m-2.16-3.44c-.31,.76-.88,1.48-1.36,2.15-.1,.15-.8,1.07-.79,.4 .02-.87 .63-1.63 1.13-2.3 .14-.18 1.29-.92 1.02-.25m-11.67-3.96c-1.03,.18-1.07,1.66 .08,1.59 .65,.2 .9-1.76-.08-1.59m8.12,3.45c.32,.01 1.41,.34 1.33-.34-.06-.54-1.07-.52-1.45-.52-1.25,.01-1.99,.19-1.64-1.35 .1-.44 .31-2.5-.81-1.86-.63,.35-.42,1.74-.4,2.33 .03,1.09-.53,.88-1.44,.96-1.2,.09-.49-1.49-.5-2.18-.02-1.19-1.36-.78-1.35,.26 0,.42 .11,.83 .13,1.25 .03,.72-.92,.74-.81,1.41 .07,.49 .67,.62 .8,1.12 .14,.52 .09,1.1 .03,1.63-.06,.62-.18,1.27 0,1.89 .19,.63 .96,1.11 1.2,.22 .29-1.07-1.06-3.48-.08-4.35 .26-.23 .92-.23 1.27-.28 .72-.1 .9,.15 .79,.88-.14,1-.12,2.22 0,3.24 .09,.76 .89,1.82 1.17,.46 .23-1.11-.1-2.45-.1-3.58 0-.48-.27-1.02 .33-1.14 .49-.1 1.02-.06 1.52-.04m-8.11,2.13c-.02-.38 .31-2.39-.43-2.27-1.23,.19-.68,2.08-.68,2.93 0,.51 .04,2.64 1.07,2.2 .84-.36 .07-2.23 .04-2.86m-3.15-2.42c.05-.66 .09-1.35 .19-2 .08-.54 .48-1.46 .1-1.97-.23-.32-.76-.32-1.04-.05-.41,.39-.09,1.3-.11,1.79-.02,.93 .19,2.57-.92,2.82-.31,.07-1.3,.55-1.54,.38-.15-.1 .02-1.39 .03-1.53 .02-.68 .08-1.36 .13-2.04 .04-.64 .38-1.62 .27-2.23-.07-.43-.6-.75-1.01-.6-.6,.22-.33,1.18-.28,1.64 .16,1.49 .02,3.12 0,4.62-.02,1.49-.37,3.1-.23,4.58 .12,1.38 1.51,1.09 1.06-.2-.22-.64-.32-2.72 .47-3.02 .89-.33 1.89-1.11 1.75,.35-.09,1.02-.21,2.23-.06,3.25 .14,.98 1.23,.19 1.25-.48 .03-.82-.2-1.65-.22-2.48-.01-.45-.08-.98 .1-1.41 .16-.39 .86-.12 1.17-.35 .49-.37-1.14-.82-1.12-1.04m35,.95c-1.2-3.2-3.81,.56-4.34,2.15-.08,.26-.06,.94-.45,.76-.35-.15-.68-.35-1.01-.55-.5-.3-.93-.77-1.39-1.15-.48-.39-1.08-.65-1.53-1.09-.85-.81 .59-.8 1.1-.93 .37-.09 3.13-.7 1.49-1.34-.38-.14-3.47,.59-3.46,.64-.03-.87 .66-2.58-.14-3.26-1.49-1.25-.89,3.55-.89,3.8-.02,1.25 0,2.51-.03,3.77-.01,.57-.49,2.59 .55,2.61 1.25,.02-.25-3.81 .5-4.45 1,.63 1.9,1.42 2.88,2.08 .37,.25 1.59,1.59 2.04,1.45 .96-.3 1.78-.78 2.36-1.62 .17-.25 1.08-2.01 1.55-1.75 1.15,.64 .14,4.09 1.37,4.07 1.7-.03-.4-4.69-.59-5.2m-1.89,.55c-.49,.62-.93,1.28-1.4,1.92 .22-.33 .15-.86 .48-1.26 .23-.28 .68-1.11 1.13-1.04-.02,.15-.09,.28-.21,.38m8.24-2.03c-1.68-.24-2.06,1.04-3.28,1.76-.09-.46 .35-.98 .12-1.42-.46-.88-1.27,.25-1.33,.74-.08,.67-.38,5.59 1.13,4.83 .46-.23 .4-2.21 .6-2.75 .39-1.01 1.25-2.08 2.44-2.15 .47-.02 1.31,1.41 1.57,.57 .28-.92-.41-1.46-1.26-1.58m-7.16-2.14c.97,.86 1.89-1.06 .79-1.36-.71-.19-1.36,.84-.79,1.36m-2.13-.34c1.15,.14 1.07-1.22 .15-1.49-1.1-.31-1.11,1.36-.15,1.49m12.45-.01c-1.1-.02-.85,3.06-.84,3.7 .02,1.07 .05,2.16 0,3.24-.03,.65-.29,1.57 .12,2.15 .53,.73 1.06-.14 1.02-.68-.09-1.28-.13-2.56-.12-3.85 0-.52 .92-4.88-.18-4.56m6.71,6.9c-1.09,.01-2.04,1.48-3.18,1.06-.4-.14-1.71-1.63-.68-1.69 1.09-.06 2.36-1.27 2.69-2.3 .28-.86-.24-2.19-1.33-1.7-1.22,.55-2.27,1.29-2.7,2.62-.36,1.14-.51,2.83 .59,3.64 .94,.69 2.38,.46 3.37,0 .2-.09 2.37-1.65 1.24-1.63m-3.69-2.48c.09-.15 1.19-1.16 1.39-.79 .21,.39-2.04,1.78-1.39,.79m22.09,.87c-.03-.63-.09-3.02-1.23-2.67-.77,.24-1.36,1.2-1.8,1.82-.1,.15-1.03,1.78-1,1.31 .03-.48 .19-.95 .32-1.41 .13-.46-.08-1.99-.84-1.25-.7,.68-.88,3.38-.78,4.2 .05,.43-.09,1.92 .78,1.68 .6-.16 .88-1.17 1.08-1.67 .24-.6 2.04-4.37 2.27-2.31 .12,1.17 .1,2.78 .6,3.89 .33,.73 1.12,.22 1.15-.43 .04-1.02-.49-2.11-.55-3.15m-6.1,2.26c-1.08,.13-1.84,.83-3.01,.44-.92-.3-1.42-1.38-1.36-2.3-.01,.19 1.73-.33 1.9-.4 .91-.37 1.49-2.3 .85-3.06-.78-.92-2.19,0-2.83,.62-1.18,1.17-.88,2.76-.88,4.26 0-1-5.57-3.75-2.42-3.94 .32-.02 .81,.02 1.02-.28 .33-.49-.52-.87-.88-.85-.63,.03-2,.44-2.53-.06-.39-.37-.13-1.22-.06-1.67 .2-1.35-1.29-1.86-1.38-.22-.04,.8 .21,1.58 .16,2.38-.05,1.02-.08,2.05-.11,3.08-.01,.31-.38,4.14 .9,3.05 .68-.57-.4-4.41 .24-4.56 .23-.05 .84,.82 .96,.93 .63,.58 1.3,1.12 1.88,1.76 .43,.47 .93,1.46 1.58,1.67 .23,.07 1.2-.3 .91-.64 .79,.94 1.84,1.38 3.06,1.25 .68-.07 1.48-.22 1.99-.73 .2-.21 .65-.8 0-.71m-3.76-3.72c.19-.28 1.54-.95 1.1-.19-.24,.42-1.73,1.1-1.1,.19m25.84,.71c-.13-.03-.7-.82-.9-.97-.62-.47-.52-1.1-1.55-.75-1.32,.44-2.03,1.83-2.66,2.96 .02-1.5-.82-2.51-2.14-3.11-.93-.42-2.47-.82-2.57,.66-.06,.94 .09,1.9 .06,2.84-.01,.37 0,.9-.22,1.23-.19,.28-1.46,.24-.63,.87 .66,.49 .71,.57 .65,1.53-.04,.68-.24,1.37-.21,2.06 .02,.51 .35,1.04 .94,.71 .5-.28 .43-1.06 .34-1.53-.08-.43-.42-2.49 .16-2.67 .7-.21 1.64-.36 2.2-.88 .19-.17 .85-1.06 1.14-.98-.43,1.78 1.56,1.56 2.35,.59 .23-.28 1.79-2.48 2.17-1.54 .35,.85 .34,2.18 1.09,2.82 .55,.47 .91-.46 .83-.9-.17-.97-.69-2.02-1.06-2.94m-6.51,1.56c-.49,.89-1.56,.76-2.32,1.26-.03-.45-.2-3.6 .44-3.75 1.31-.32 2.53,1.3 1.88,2.48m4.25-1.47c-.2,.28-1.48,2.09-1.94,1.99 0-1.22 1.33-2.17 2.3-2.57-.05,.23-.17,.42-.36,.57m2.93-6.05c-.39,.15-.95-.51-1.31-.64-.62-.21-1.09,.18-1.46,.65-.78,1-.99,2.76 .57,3.15 .81,.2 2.31-.21 2.47-1.18 .03-.23 .25-2.19-.28-1.98m-1.61,2.11c-.62,.09-.77-.7-.43-1.08 .63-.7 .82,.22 1.49,.2-.14,.47-.57,.8-1.05,.87m34.51,1.57c-.88-.11-1.87,.43-2.72,.03-1.03-.48 .85-2.97-.74-3-1.14-.02-.51,2.42-.75,3.12-.17,.48-.86,.28-1.12,.7-.54,.85 .55,.89 1.01,.94-.07,1.08-.22,2.36 .16,3.4 .15,.39 .64,.81 1.06,.43 .37-.33 .23-1.09 .16-1.52-.25-1.64-.59-2.81 1.52-3.04 .63-.06 1.75,.28 2.28-.17 .63-.54-.49-.85-.86-.89m-20.53-1.57c.87,.62 1.65-.43 .91-1.14-.75-.72-1.75,.54-.91,1.14m2.85-.26c.83,.07 .79-1.06 .31-1.44-.92-.73-1.85,1.3-.31,1.44m12.66,5.19c-.35,.02-1.13,.74-1.54,.89-.56,.2-1.18,.56-1.78,.64-.93,.12-2.46-.97-1.39-1.92 .95-.84 2.92-.98 3.18-2.53 .27-1.64-1.6-1.57-2.51-.95-1.68,1.16-3.54,5.3-.72,6.34 1.43,.53 2.99-.27 4.14-1.08 .22-.15 1.43-1.44 .63-1.39m-3.75-2.59c.22-.18 .59-.55 .92-.49-.13,.65-.89,.96-1.42,1.21-.1-.25 .34-.59 .49-.72m-8.19,2.62c-.15-.54-.18-1.34-.53-1.79-.04-.06-.6-.71-.64-.43 .31-1.94-2.38,.04-2.77,.46-.48,.51-1.95,1.83-1.95,2.62-.36-1.27 .04-2.89-.81-3.99-1.24-1.6-2.33,1.03-3.21,1.51-.27-.47 .3-1.18-.18-1.59-.71-.59-1.05,.34-1.03,.89 .03,.78-.43,5.05 .71,5.04 .97,0 .8-1.56 .91-2.17 .16-.91 .53-2 1.29-2.6 1.22-.97 1.07,1.56 1.13,2.23 .08,.9 .3,2.8 1.65,2.41 .89-.25 1.57-.87 2.18-1.53 .37-.4 1.06-1.48 1.67-1.52 .78-.05 .84,2.12 .96,2.61 .18,.73 1.08,.8 1.22-.01 .12-.74-.4-1.44-.6-2.13m-2.73-.97c-.53,.51-.98,1.53-1.78,1.68-.14-.6 1.82-2.38 2.35-2.32-.12-.01-.47,.55-.57,.64m7.41-3.3c-.33-.08-.9,.08-1.17-.2-.28-.31 .39-1.7 .38-2.13-.01-.75-.91-1.02-1.27-.33-.29,.57-.16,1.3-.2,1.92-.06,1.11-1.09,.68-1.79,1.04-.45,.23-.21,.96 .2,1.08 .24,.07 1.32-.18 1.31,.19-.03,1.37-.34,2.87-.14,4.23 .04,.29 .19,1.11 .66,.99 .79-.19 .5-1.08 .52-1.63 .02-.86-.66-4.11 .64-4.1 .44,0 1.22,.22 1.58-.14 .37-.37-.47-.86-.74-.928"/>
</svg>
