<?xml version="1.0" encoding="utf-8"?>
<!-- Generator: Adobe Illustrator 17.1.0, SVG Export Plug-In . SVG Version: 6.00 Build 0)  -->
<!DOCTYPE svg PUBLIC "-//W3C//DTD SVG 1.0//EN" "http://www.w3.org/TR/2001/REC-SVG-20010904/DTD/svg10.dtd">
<svg version="1.0" xmlns="http://www.w3.org/2000/svg" xmlns:xlink="http://www.w3.org/1999/xlink" x="0px" y="0px"
	 viewBox="0 0 17.321 18" enable-background="new 0 0 17.321 18" xml:space="preserve">
<g id="Layer_1">
	<path fill="#9F9E9A" d="M9.365,0.023C4.6-0.327,0.42,3.409,0.029,8.368c-0.389,4.956,3.161,9.26,7.93,9.61
		c4.763,0.347,8.944-3.388,9.332-8.345C17.682,4.673,14.132,0.373,9.365,0.023z M11.482,2.629c0.153-0.282,0.506-0.386,0.788-0.233
		c0.282,0.153,0.386,0.506,0.233,0.787c-0.153,0.282-0.506,0.386-0.788,0.233C11.434,3.263,11.329,2.911,11.482,2.629z M8.66,1.479
		c0.321,0,0.581,0.26,0.581,0.581c0,0.321-0.26,0.581-0.581,0.581c-0.321,0-0.581-0.26-0.581-0.581S8.34,1.479,8.66,1.479z
		 M2.01,5.436C2.163,5.154,2.516,5.05,2.797,5.203c0.282,0.153,0.386,0.506,0.233,0.788C2.878,6.272,2.525,6.377,2.243,6.224
		C1.961,6.071,1.857,5.718,2.01,5.436z M1.674,9.627c-0.321,0-0.581-0.26-0.581-0.581c0-0.321,0.26-0.581,0.581-0.581
		c0.321,0,0.581,0.26,0.581,0.581C2.255,9.367,1.995,9.627,1.674,9.627z M3.067,13.272c-0.271,0.171-0.63,0.091-0.801-0.18
		c-0.172-0.271-0.091-0.63,0.18-0.801c0.271-0.171,0.63-0.091,0.801,0.18C3.419,12.742,3.338,13.101,3.067,13.272z M4.434,3.453
		c-0.171-0.271-0.091-0.63,0.18-0.801c0.271-0.172,0.63-0.091,0.801,0.18c0.171,0.271,0.091,0.63-0.18,0.801
		C4.964,3.805,4.606,3.724,4.434,3.453z M5.838,15.463c-0.153,0.282-0.506,0.386-0.788,0.233c-0.282-0.153-0.386-0.506-0.233-0.787
		c0.153-0.282,0.506-0.386,0.788-0.233C5.887,14.829,5.991,15.181,5.838,15.463z M8.66,16.613c-0.321,0-0.581-0.26-0.581-0.581
		c0-0.321,0.26-0.581,0.581-0.581c0.321,0,0.581,0.26,0.581,0.581C9.241,16.353,8.981,16.613,8.66,16.613z M8.228,9.843
		c-0.051-0.038-0.092-0.083-0.13-0.13C7.916,9.586,7.794,9.379,7.788,9.14l-0.111-4.58C7.668,4.161,7.983,3.83,8.381,3.821
		C8.782,3.816,9.11,4.126,9.12,4.524l0.103,4.261l3.446,2.576c0.319,0.239,0.384,0.691,0.146,1.01
		c-0.142,0.189-0.359,0.289-0.578,0.289c-0.15,0-0.302-0.047-0.432-0.144L8.228,9.843z M12.706,15.44
		c-0.271,0.172-0.63,0.091-0.801-0.18c-0.171-0.271-0.091-0.63,0.18-0.801c0.271-0.172,0.63-0.091,0.801,0.18
		C13.058,14.91,12.977,15.269,12.706,15.44z M14.073,5.621c-0.172-0.271-0.091-0.63,0.18-0.801c0.271-0.171,0.63-0.091,0.801,0.18
		c0.171,0.271,0.091,0.63-0.18,0.801C14.603,5.973,14.245,5.892,14.073,5.621z M15.31,12.656c-0.153,0.282-0.506,0.386-0.787,0.233
		c-0.282-0.153-0.386-0.506-0.233-0.788c0.153-0.282,0.506-0.386,0.787-0.233C15.359,12.021,15.463,12.374,15.31,12.656z
		 M15.646,9.627c-0.321,0-0.581-0.26-0.581-0.581c0-0.321,0.26-0.581,0.581-0.581c0.321,0,0.581,0.26,0.581,0.581
		C16.227,9.367,15.967,9.627,15.646,9.627z"/>
</g>
<g id="dots">
	<g>
	</g>
	<g>
	</g>
	<g>
	</g>
	<g>
	</g>
	<g>
	</g>
	<g>
	</g>
</g>
</svg>
